<svg width="32" height="32" viewBox="0 0 32 32" fill="none" xmlns="http://www.w3.org/2000/svg">
<g clip-path="url(#clip0_688_59)">
<path d="M26 4V6.047C26 8.258 24.211 10.047 22 10.047C19.789 10.047 18 8.258 18 6.047V4H14V6.047C14 8.258 12.211 10.047 10 10.047C7.789 10.047 6 8.258 6 6.047V4H0V32H32V4H26ZM10 28H6V24H10V28ZM10 20H6V16H10V20ZM18 28H14V24H18V28ZM18 20.008H14V16.008H18V20.008ZM22 28V24H26L22 28ZM26 20H22V16H26V20Z" fill="#39A900"/>
<path d="M8 6V2C8 1.46957 8.21071 0.960859 8.58579 0.585786C8.96086 0.210714 9.46957 0 10 0C10.5304 0 11.0391 0.210714 11.4142 0.585786C11.7893 0.960859 12 1.46957 12 2V6C12 6.53043 11.7893 7.03914 11.4142 7.41421C11.0391 7.78929 10.5304 8 10 8C9.46957 8 8.96086 7.78929 8.58579 7.41421C8.21071 7.03914 8 6.53043 8 6ZM20 6V2C20 1.46957 20.2107 0.960859 20.5858 0.585786C20.9609 0.210714 21.4696 0 22 0C22.5304 0 23.0391 0.210714 23.4142 0.585786C23.7893 0.960859 24 1.46957 24 2V6C24 6.53043 23.7893 7.03914 23.4142 7.41421C23.0391 7.78929 22.5304 8 22 8C21.4696 8 20.9609 7.78929 20.5858 7.41421C20.2107 7.03914 20 6.53043 20 6Z" fill="#39A900"/>
</g>
<defs>
<clipPath id="clip0_688_59">
<rect width="32" height="32" fill="white"/>
</clipPath>
</defs>
</svg>
