<svg width="71" height="70" viewBox="0 0 71 70" fill="none" xmlns="http://www.w3.org/2000/svg">
<path d="M35.9678 1.49562C31.8944 1.5026 28.5895 4.80762 28.5965 8.88822C28.6035 12.9618 31.9084 16.2669 35.9818 16.2669C40.0552 16.2669 43.3601 12.9618 43.3601 8.88124V8.86726C43.3531 4.78665 40.0482 1.48863 35.9678 1.49562ZM11.6111 18.5517C10.3115 18.5587 8.99101 18.6286 7.75431 18.943C6.93683 19.1526 6.1473 19.488 5.63725 20.0191C4.99444 20.6829 4.9106 21.5772 5.22501 22.3458C5.50449 23.0236 6.25909 23.5267 7.09753 23.8202C8.90716 24.442 10.9124 24.5678 12.8129 24.9591C13.1622 25.043 13.5535 25.1408 13.7701 25.3783C13.9937 25.6648 13.8609 26.0561 13.4906 26.2308C12.8758 26.5452 12.0862 26.5452 11.3666 26.5382C10.7098 26.5103 9.99015 26.4544 9.46612 26.126C9.08184 25.8884 9.01197 25.4901 9.1028 25.1408H4.86868C4.8547 25.7836 4.98047 26.4614 5.45558 27.0134C5.84686 27.4885 6.48966 27.8169 7.17439 28.0196C8.27135 28.341 9.45914 28.4388 10.626 28.4668C12.212 28.4947 13.826 28.4458 15.3492 28.0894C16.2575 27.8658 17.1518 27.5095 17.7317 26.9295C18.7658 25.8954 18.5213 24.2534 17.1518 23.4498C16.4671 23.0516 15.6496 22.807 14.8182 22.6463C13.5954 22.3948 12.3518 22.2061 11.122 22.0035C10.6888 21.9196 10.2277 21.8428 9.86438 21.6401C9.4801 21.4375 9.45215 20.9554 9.84342 20.7388C10.3465 20.4523 11.0172 20.4593 11.6181 20.4593C12.2539 20.4732 12.9456 20.5082 13.4697 20.8086C13.7631 20.9693 13.8819 21.2488 13.8819 21.5143L17.9064 21.5074C17.8924 20.9973 17.7946 20.4662 17.4243 20.026C16.9911 19.481 16.2295 19.1387 15.447 18.943C14.2103 18.6216 12.9037 18.5587 11.6111 18.5517ZM20.3449 18.8522V28.4737H32.09V26.3775H24.6559V24.5119H31.2865V22.4646H24.6559V20.9344H31.8245L31.8175 18.8592L20.3449 18.8522ZM39.6919 18.8592C39.6919 18.8592 36.0656 18.8592 34.249 18.8592V28.4807H38.3713V22.0035L44.0168 28.4737L49.6763 28.4807V18.8592H45.547L45.554 25.2875L39.6919 18.8592ZM57.0266 18.8731C57.0266 18.8731 52.5829 25.2945 50.3471 28.4947H54.672L55.7131 26.7618H62.3996L63.3708 28.5017H68.1779L61.8057 18.8731H57.0266ZM59.1926 21.172L61.2468 24.6587L57.0057 24.6656L59.1926 21.172ZM1.47998 31.1988L1.51492 36.4393L21.0855 36.3694C22.0846 36.586 22.6646 37.2359 22.4619 38.7102L10.4233 59.784L14.343 63.4524L32.9914 31.1988H1.47998ZM38.8325 31.2407L57.1664 63.3546L61.2188 59.7141L49.0405 38.6962C48.8379 37.2149 49.4178 36.5581 50.4169 36.3415L69.9945 36.4114L69.9875 31.2617L38.8325 31.2407ZM35.7372 36.5581L18.5422 66.0726L23.1117 68.3016L34.5844 48.9047C34.9826 48.5833 35.3809 48.4086 35.7792 48.3947C36.1984 48.3807 36.6316 48.5344 37.0578 48.8698L48.5025 68.3226L53.2117 65.863L35.7372 36.5581Z" fill="#39A900"/>
</svg>
